Coordinates
version=1
nRows=24
nColumns=38
inDegrees=no

Units are S.I. units (second, meters, Newtons, ...)
If the header above contains a line with 'inDegrees', this indicates whether rotational values are in degrees (yes) or radians (no).

endheader
time	pelvis_tilt	pelvis_list	pelvis_rotation	pelvis_tx	pelvis_ty	pelvis_tz	hip_flexion_r	hip_adduction_r	hip_rotation_r	knee_angle_r	ankle_angle_r	subtalar_angle_r	mtp_angle_r	hip_flexion_l	hip_adduction_l	hip_rotation_l	knee_angle_l	ankle_angle_l	subtalar_angle_l	mtp_angle_l	lumbar_extension	lumbar_bending	lumbar_rotation	arm_flex_r	arm_add_r	arm_rot_r	elbow_flex_r	pro_sup_r	wrist_flex_r	wrist_dev_r	arm_flex_l	arm_add_l	arm_rot_l	elbow_flex_l	pro_sup_l	wrist_flex_l	wrist_dev_l
2.49	3.1338	1.50247	-1.43577	0.68614	1.67261	0.909669	0.383582	-0.106036	-0.373728	0.36962	0.0415691	0	0	-0.355178	-0.07446	-0.231633	0.320886	0.283409	0	0	-0.172707	0.0524686	-0.200223	-0.0297802	-0.257954	0.371384	0.584367	1.37305	0	0	-0.0158501	-0.384624	0.284642	0.843666	0.986472	0	0
2.5	3.08276	1.50328	-1.38399	0.688176	1.68476	0.909852	0.381241	-0.101564	-0.3732	0.386751	0.0292123	0	0	-0.345119	-0.0892178	-0.236458	0.361839	0.271741	0	0	-0.167231	0.0568522	-0.19948	-0.0359191	-0.258984	0.370359	0.583424	1.37655	0	0	-0.0275845	-0.378576	0.286625	0.831733	0.985568	0	0
2.51	3.0129	1.50261	-1.31382	0.690247	1.69697	0.910368	0.377127	-0.0951264	-0.370196	0.403433	0.0194079	0	0	-0.33374	-0.105618	-0.239746	0.406016	0.254907	0	0	-0.16298	0.0629368	-0.197953	-0.0419471	-0.261064	0.370679	0.583654	1.37897	0	0	-0.0387583	-0.372366	0.290805	0.818707	0.984271	0	0
2.52	2.92545	1.50192	-1.22754	0.69263	1.70907	0.910974	0.372853	-0.0863845	-0.366774	0.418099	0.0128621	0	0	-0.318013	-0.12366	-0.242728	0.455333	0.232531	0	0	-0.15845	0.0698795	-0.194801	-0.0474371	-0.26356	0.372677	0.584412	1.38052	0	0	-0.0496099	-0.36636	0.296286	0.805397	0.982606	0	0
2.53	2.82309	1.50251	-1.12793	0.695358	1.721	0.911433	0.370017	-0.0761111	-0.364382	0.430448	0.0103521	0	0	-0.295888	-0.142432	-0.244355	0.510019	0.203302	0	0	-0.152038	0.0765984	-0.189936	-0.0527345	-0.26611	0.375894	0.585477	1.38212	0	0	-0.0601977	-0.361018	0.303653	0.792206	0.980608	0	0
2.54	2.7043	1.50427	-1.013	0.6983	1.73275	0.911679	0.368095	-0.064653	-0.362072	0.439365	0.0112796	0	0	-0.267732	-0.161206	-0.243345	0.568615	0.167045	0	0	-0.143595	0.0828449	-0.18395	-0.0581773	-0.268812	0.37831	0.588042	1.38335	0	0	-0.0705621	-0.356374	0.313262	0.779321	0.977895	0	0
2.55	2.56209	1.50674	-0.874819	0.701248	1.74429	0.911663	0.366902	-0.0524202	-0.359529	0.444904	0.0151671	0	0	-0.233484	-0.17986	-0.238803	0.63111	0.123651	0	0	-0.133078	0.0888751	-0.177764	-0.0636837	-0.272264	0.381268	0.592739	1.38311	0	0	-0.0804535	-0.352422	0.325918	0.766966	0.972965	0	0
2.56	2.40596	1.50909	-0.722252	0.704164	1.75568	0.911441	0.365431	-0.0401633	-0.357729	0.447802	0.0235016	0	0	-0.195443	-0.197325	-0.229964	0.695165	0.0744762	0	0	-0.121435	0.0940451	-0.17175	-0.0691357	-0.276693	0.386996	0.599431	1.37924	0	0	-0.0900005	-0.349658	0.341825	0.756099	0.965403	0	0
2.57	2.26706	1.51181	-0.5863	0.70696	1.7669	0.911013	0.365147	-0.0322216	-0.359607	0.455281	0.04034	0	0	-0.156274	-0.210351	-0.215502	0.758168	0.0242201	0	0	-0.108699	0.0963864	-0.168172	-0.0696219	-0.302045	0.491262	0.626203	1.16297	0	0	-0.100034	-0.359341	0.395704	0.761607	0.842971	0	0
2.58	2.15563	1.50823	-0.478107	0.709768	1.77803	0.911364	0.355864	-0.0171394	-0.353662	0.452434	0.0502643	0	0	-0.122262	-0.226753	-0.202917	0.817458	-0.0289336	0	0	-0.103811	0.102729	-0.159721	-0.0771034	-0.292266	0.422864	0.620056	1.32809	0	0	-0.106583	-0.348451	0.386751	0.740495	0.923343	0	0
2.59	2.09206	1.50526	-0.416521	0.71221	1.78884	0.911801	0.346846	-0.00663361	-0.35077	0.454331	0.0627317	0	0	-0.0884352	-0.238778	-0.185404	0.87509	-0.0818461	0	0	-0.100303	0.107015	-0.154092	-0.0793898	-0.297594	0.427001	0.627696	1.33264	0	0	-0.113177	-0.344831	0.399173	0.730346	0.92963	0	0
2.6	2.05128	1.50189	-0.376323	0.714421	1.79935	0.912418	0.336884	0.00285394	-0.34822	0.456386	0.0729896	0	0	-0.0545734	-0.248469	-0.159084	0.930546	-0.133532	0	0	-0.0983782	0.111003	-0.149204	-0.0808487	-0.303559	0.434078	0.636329	1.32989	0	0	-0.117468	-0.342541	0.417984	0.720497	0.927823	0	0
2.61	2.05362	1.49813	-0.379289	0.716505	1.80974	0.913387	0.323334	0.0117471	-0.344606	0.456603	0.07966	0	0	-0.0232148	-0.25624	-0.138949	0.983093	-0.181037	0	0	-0.09998	0.114107	-0.144053	-0.0809389	-0.308737	0.439304	0.64352	1.32614	0	0	-0.121227	-0.339617	0.43298	0.711436	0.9271	0	0
2.62	2.0676	1.49465	-0.393613	0.718454	1.82003	0.914506	0.308459	0.0198611	-0.341094	0.455231	0.0842827	0	0	0.00630416	-0.261987	-0.122151	1.03072	-0.216119	0	0	-0.102448	0.116527	-0.138731	-0.0805453	-0.314321	0.445266	0.650841	1.32225	0	0	-0.123719	-0.337022	0.450014	0.702236	0.925694	0	0
2.63	2.10101	1.49169	-0.427672	0.720371	1.83024	0.91587	0.291592	0.0267522	-0.337241	0.452533	0.0882834	0	0	0.0321233	-0.265433	-0.108766	1.0719	-0.234575	0	0	-0.10661	0.117488	-0.132679	-0.0795197	-0.31925	0.450005	0.656917	1.32004	0	0	-0.125489	-0.334415	0.466208	0.693557	0.924149	0	0
2.64	2.14163	1.48858	-0.468367	0.722259	1.84033	0.91742	0.272471	0.0336036	-0.33409	0.44697	0.0917843	0	0	0.0566365	-0.268265	-0.0963963	1.1103	-0.236664	0	0	-0.111387	0.117833	-0.125974	-0.0789637	-0.323446	0.453404	0.66267	1.31466	0	0	-0.12451	-0.334721	0.496308	0.684845	0.915718	0	0
2.65	2.19467	1.48633	-0.521727	0.724172	1.85036	0.919177	0.251594	0.0390745	-0.331308	0.439502	0.0953778	0	0	0.0803673	-0.269058	-0.085873	1.14775	-0.220933	0	0	-0.116589	0.116041	-0.120029	-0.0767699	-0.325091	0.453567	0.664065	1.31396	0	0	-0.125535	-0.332885	0.513015	0.676679	0.918686	0	0
2.66	2.26134	1.48375	-0.589731	0.72613	1.86051	0.921172	0.22814	0.0439621	-0.328877	0.430026	0.0989801	0	0	0.103912	-0.270886	-0.0912647	1.18416	-0.199248	0	0	-0.122696	0.113147	-0.113525	-0.0740635	-0.326189	0.453928	0.664261	1.31211	0	0	-0.127379	-0.331019	0.527269	0.669965	0.921295	0	0
2.67	2.3267	1.48346	-0.656366	0.727895	1.87023	0.923138	0.206914	0.0456011	-0.327195	0.421269	0.103202	0	0	0.126678	-0.266482	-0.0830503	1.21418	-0.168299	0	0	-0.127914	0.107975	-0.107503	-0.0702892	-0.326701	0.453026	0.66349	1.31007	0	0	-0.129201	-0.328708	0.537515	0.664645	0.923234	0	0
2.68	2.39471	1.48495	-0.727028	0.729659	1.87962	0.92504	0.188065	0.044651	-0.326454	0.413876	0.107517	0	0	0.149192	-0.259379	-0.0773208	1.23747	-0.142873	0	0	-0.132241	0.100712	-0.100368	-0.0661107	-0.32725	0.452155	0.663065	1.30596	0	0	-0.131172	-0.326319	0.544623	0.661303	0.923811	0	0
2.69	2.47072	1.48659	-0.806994	0.731454	1.88885	0.926983	0.169541	0.0430284	-0.323763	0.406181	0.111274	0	0	0.169766	-0.251382	-0.0746928	1.25378	-0.123535	0	0	-0.136855	0.0925898	-0.0912483	-0.0633746	-0.326163	0.44127	0.66305	1.31671	0	0	-0.132502	-0.323915	0.55038	0.658669	0.931419	0	0
2.7	2.54741	1.48828	-0.888047	0.7332	1.89801	0.928883	0.15153	0.0409455	-0.321196	0.398087	0.11463	0	0	0.189489	-0.243133	-0.074305	1.26447	-0.107561	0	0	-0.140749	0.0841878	-0.0821769	-0.0608102	-0.325848	0.432858	0.664792	1.31977	0	0	-0.134807	-0.321686	0.553753	0.658599	0.93498	0	0
2.71	2.61795	1.49039	-0.962352	0.73482	1.90721	0.930675	0.133847	0.0386043	-0.320606	0.388318	0.117586	0	0	0.209575	-0.234908	-0.0750494	1.2705	-0.0930853	0	0	-0.142645	0.0758632	-0.0738729	-0.0593525	-0.325182	0.422632	0.666993	1.32519	0	0	-0.138122	-0.319742	0.555712	0.660389	0.93898	0	0
2.72	2.68	1.49268	-1.02866	0.73644	1.9163	0.932368	0.117125	0.0366786	-0.319681	0.37782	0.119943	0	0	0.229549	-0.227159	-0.0774474	1.27183	-0.0798886	0	0	-0.143163	0.0679646	-0.0653809	-0.0580727	-0.324863	0.413163	0.67009	1.32914	0	0	-0.142153	-0.31774	0.555223	0.66378	0.942066	0	0
